<svg xmlns="http://www.w3.org/2000/svg" viewBox="0 0 24 24">
  <path d="M19.14 12.94c.04-.31.06-.63.06-.94s-.02-.63-.06-.94l2.03-1.58c.18-.14.23-.39.12-.59l-1.92-3.32c-.11-.19-.35-.26-.55-.2l-2.39.96c-.5-.38-1.04-.7-1.64-.94L14.5 2.5c-.03-.21-.21-.36-.42-.36h-4c-.21 0-.39.15-.42.36l-.38 2.46c-.6.24-1.14.56-1.64.94l-2.39-.96c-.2-.08-.44.01-.55.2l-1.92 3.32c-.11.19-.06.45.12.59l2.03 1.58c-.04.31-.06.63-.06.94s.02.63.06.94l-2.03 1.58c-.18.14-.23.39-.12.59l1.92 3.32c.11.19.35.26.55.2l2.39-.96c.5.38 1.04.7 1.64.94l.38 2.46c.03.21.21.36.42.36h4c.21 0 .39-.15.42-.36l.38-2.46c.6-.24 1.14-.56 1.64-.94l2.39.96c.2.08.44-.01.55-.2l1.92-3.32c.11-.19.06-.45-.12-.59l-2.03-1.58zM12 15.5c-1.93 0-3.5-1.57-3.5-3.5s1.57-3.5 3.5-3.5 3.5 1.57 3.5 3.5-1.57 3.5-3.5 3.5z"/>
</svg>
